<svg width="14" height="17" viewBox="0 0 14 17" fill="none" xmlns="http://www.w3.org/2000/svg">
<g id="Group">
<g id="Group_2">
<g id="Group_3">
<path id="Vector" d="M6.7381 12.9524C7.66458 12.9524 8.42262 12.2238 8.42262 11.3333C8.42262 10.4429 7.66458 9.71429 6.7381 9.71429C5.81161 9.71429 5.05357 10.4429 5.05357 11.3333C5.05357 12.2238 5.81161 12.9524 6.7381 12.9524ZM11.7917 5.66667H10.9494V4.04762C10.9494 1.81333 9.06274 0 6.7381 0C4.41345 0 2.52679 1.81333 2.52679 4.04762V5.66667H1.68452C0.758036 5.66667 0 6.39524 0 7.28571V15.381C0 16.2714 0.758036 17 1.68452 17H11.7917C12.7182 17 13.4762 16.2714 13.4762 15.381V7.28571C13.4762 6.39524 12.7182 5.66667 11.7917 5.66667ZM4.12708 4.04762C4.12708 2.66333 5.29783 1.5381 6.7381 1.5381C8.17836 1.5381 9.34911 2.66333 9.34911 4.04762V5.66667H4.12708V4.04762ZM11.7917 15.381H1.68452V7.28571H11.7917V15.381Z" fill="#222831"/>
</g>
</g>
</g>
</svg>
