<svg width="30" height="31" viewBox="0 0 30 31" fill="none" xmlns="http://www.w3.org/2000/svg">
<path d="M15.3293 25.0108C15.1294 24.8795 14.8706 24.8795 14.6707 25.0108L6.694 30.2475C6.395 30.4438 6.00836 30.179 6.08337 29.8292L8.22869 19.8265C8.2727 19.6212 8.20627 19.4079 8.0535 19.264L0.875075 12.4998C0.624374 12.2636 0.769628 11.842 1.11264 11.8104L10.4865 10.9453C10.7128 10.9245 10.9079 10.7775 10.9904 10.5657L14.6273 1.23195C14.7597 0.892245 15.2403 0.892245 15.3727 1.23194L19.0096 10.5657C19.0921 10.7775 19.2872 10.9245 19.5135 10.9453L28.8874 11.8104C29.2304 11.842 29.3756 12.2636 29.1249 12.4998L21.9465 19.264C21.7937 19.4079 21.7273 19.6212 21.7713 19.8265L23.9166 29.8292C23.9916 30.179 23.605 30.4438 23.306 30.2475L15.3293 25.0108Z" fill="#EBFF00" stroke="#222831" stroke-width="0.2"/>
</svg>
