<svg width="24" height="24" viewBox="0 0 24 24" fill="none" xmlns="http://www.w3.org/2000/svg">
<path d="M17.6841 21.7515H2.5263V6.31585H11.3683V3.78955H2.5263C1.13683 3.78955 0 4.92639 0 6.31585V21.4736C0 22.8631 1.13683 23.9999 2.5263 23.9999H17.6841C19.0736 23.9999 20.2104 22.8631 20.2104 21.4736V12.6316H17.6841V21.7515Z" fill="#E8E8E8"/>
<path d="M20.2108 0H17.6845V3.78945H13.895C13.9077 3.80208 13.895 6.31575 13.895 6.31575H17.6845V10.0926C17.6971 10.1052 20.2108 10.0926 20.2108 10.0926V6.31575H24.0002V3.78945H20.2108V0Z" fill="#E8E8E8"/>
<path d="M15.1579 8.84229H5.05273V11.3686H15.1579V8.84229Z" fill="#E8E8E8"/>
<path d="M5.05273 12.6313V15.1576H15.1579V12.6313H11.3685H5.05273Z" fill="#E8E8E8"/>
<path d="M15.1579 16.4209H5.05273V18.9472H15.1579V16.4209Z" fill="#E8E8E8"/>
</svg>
