<svg width="125" height="166" viewBox="0 0 125 166" fill="none" xmlns="http://www.w3.org/2000/svg">
<rect x="0.1" y="0.1" width="124.8" height="165.616" rx="4.9" fill="#C4C4C4" stroke="#30475E" stroke-width="0.2"/>
<path d="M65.2883 67.7885H59.7114V78.9423H48.5575V84.5193H59.7114V95.6731H65.2883V84.5193H76.4422V78.9423H65.2883V67.7885ZM62.4998 53.8462C47.1075 53.8462 34.6152 66.3385 34.6152 81.7308C34.6152 97.1231 47.1075 109.615 62.4998 109.615C77.8922 109.615 90.3845 97.1231 90.3845 81.7308C90.3845 66.3385 77.8922 53.8462 62.4998 53.8462ZM62.4998 104.038C50.2027 104.038 40.1922 94.0279 40.1922 81.7308C40.1922 69.4337 50.2027 59.4231 62.4998 59.4231C74.797 59.4231 84.8075 69.4337 84.8075 81.7308C84.8075 94.0279 74.797 104.038 62.4998 104.038Z" fill="#E8E8E8"/>
</svg>
